Coordinates
version=1
nRows=10
nColumns=40
inDegrees=yes

Units are S.I. units (second, meters, Newtons, ...)
If the header above contains a line with 'inDegrees', this indicates whether rotational values are in degrees (yes) or radians (no).

endheader
time	pelvis_tilt	pelvis_list	pelvis_rotation	pelvis_tx	pelvis_ty	pelvis_tz	hip_flexion_r	hip_adduction_r	hip_rotation_r	knee_angle_r	knee_angle_r_beta	ankle_angle_r	subtalar_angle_r	mtp_angle_r	hip_flexion_l	hip_adduction_l	hip_rotation_l	knee_angle_l	knee_angle_l_beta	ankle_angle_l	subtalar_angle_l	mtp_angle_l	lumbar_extension	lumbar_bending	lumbar_rotation	arm_flex_r	arm_add_r	arm_rot_r	elbow_flex_r	pro_sup_r	wrist_flex_r	wrist_dev_r	arm_flex_l	arm_add_l	arm_rot_l	elbow_flex_l	pro_sup_l	wrist_flex_l	wrist_dev_l
      0.11000000	     12.76711489	      2.71439001	     -5.77945035	     -0.14831870	      0.92843648	     -0.24706517	    -23.36292554	     -4.47747639	      1.09761946	     44.67251920	      0.77968255	    -12.54382818	      0.00000000	      0.00000000	     12.65910949	      3.16417515	     -5.64965712	     18.61869962	      0.32495761	     -3.13789565	      0.00000000	      0.00000000	    -25.96183771	     -9.42640332	      7.81504366	      2.88889130	      2.81982025	    -17.39743911	     66.90482693	     89.13488335	    -14.08874123	      0.61280624	    -18.39887829	     -1.69859542	    -24.23002636	     20.88728152	     89.15108598	    -25.06306136	      5.44692828
      0.12000000	     12.81697429	      3.67385799	     -5.56590295	     -0.13049298	      0.93017570	     -0.24815000	    -21.70753422	     -5.53355842	      0.96120647	     48.08033654	      0.83916018	    -13.75427806	      0.00000000	      0.00000000	     12.11395886	      4.37005461	     -5.32362439	     19.66382038	      0.34319841	     -3.03602317	      0.00000000	      0.00000000	    -26.13516164	    -10.30276039	      6.64218531	      2.90783840	      3.25829418	    -17.41410561	     64.47882023	     89.11586633	    -14.34235909	      0.96681889	    -17.90258075	     -1.76722961	    -23.60322456	     21.13792497	     89.16085851	    -24.82830222	      5.90917636
      0.13000000	     12.78966788	      4.52540487	     -5.25474759	     -0.11329779	      0.93205664	     -0.24933842	    -19.86228380	     -6.41962753	      0.89188108	     51.39759325	      0.89705723	    -13.96241604	      0.00000000	      0.00000000	     11.57602589	      5.47977852	     -4.82599684	     20.54142148	      0.35851544	     -2.67445471	      0.00000000	      0.00000000	    -26.31397622	    -11.02368937	      5.29280129	      3.08539335	      3.63826735	    -17.08185095	     61.63860799	     89.08879010	    -15.31778703	      0.34385271	    -17.42239535	     -1.77707252	    -23.58811170	     21.84942208	     89.20036363	    -23.46191331	      6.98928229
      0.14000000	     12.80731638	      5.24239699	     -5.06719741	     -0.09657843	      0.93437176	     -0.25048501	    -17.94155865	     -7.20480660	      1.06839873	     54.53341571	      0.95178766	    -13.39322811	      0.00000000	      0.00000000	     10.84112723	      6.42741293	     -4.56281015	     21.12911348	      0.36877260	     -2.15565014	      0.00000000	      0.00000000	    -26.55092652	    -11.61129290	      4.40324505	      3.09661206	      3.94064432	    -17.23862129	     59.09985530	     89.06990378	    -15.47554190	      0.66766646	    -16.56143044	     -1.86695503	    -22.71434436	     22.16793056	     89.21234633	    -23.09009615	      7.16382576
      0.15000000	     13.30904673	      5.34951886	     -4.73866505	     -0.08064380	      0.93799216	     -0.25205607	    -16.54802145	     -7.38361718	      1.13273507	     57.13803613	      0.99724686	    -12.82837409	      0.00000000	      0.00000000	      9.40693888	      6.81841826	     -4.15341266	     21.44334686	      0.37425701	     -1.55123619	      0.00000000	      0.00000000	    -27.49764681	    -11.51068881	      4.01876864	      2.88706554	      4.06276221	    -17.82008443	     57.07869464	     88.98647037	    -15.63849528	      0.97057594	    -15.28905912	     -1.83388808	    -22.21536879	     22.69590416	     89.26136178	    -22.92468708	      7.10930881
      0.16000000	     12.79709860	      6.20183464	     -4.93194443	     -0.06469044	      0.93981515	     -0.25260671	    -13.72371227	     -8.26042990	      1.97296195	     60.13042663	      1.04947393	    -10.07541149	      0.00000000	      0.00000000	      9.02471116	      7.77967719	     -4.48725727	     21.50516165	      0.37533588	     -0.70509977	      0.00000000	      0.00000000	    -27.01896347	    -12.36079709	      3.19408660	      3.16106035	      4.27133430	    -17.48578283	     53.79242725	     89.03083284	    -15.90339419	      1.07638081	    -14.48104517	     -1.93652122	    -21.03397033	     23.25772780	     89.24540381	    -22.53191971	      7.32310080
      0.17000000	     12.86002826	      6.39855395	     -4.94389404	     -0.04936908	      0.94301005	     -0.25353147	    -11.61511980	     -8.44034246	      2.61680982	     62.40902317	      1.08924294	     -7.46240202	      0.00000000	      0.00000000	      7.82558137	      8.15217994	     -4.59734321	     21.27977690	      0.37140217	      0.22150629	      0.00000000	      0.00000000	    -27.34823073	    -12.49289592	      2.85186822	      3.18162309	      4.31813279	    -17.57383824	     51.15145442	     89.01605980	    -16.16929471	      1.26047565	    -13.28323679	     -1.92553302	    -20.25900728	     24.02823514	     89.26700286	    -22.35631550	      7.25506887
      0.18000000	     12.77440267	      6.50995915	     -5.13077959	     -0.03442154	      0.94612845	     -0.25430402	     -9.22065714	     -8.50238806	      3.47897868	     64.41800830	      1.12430634	     -4.66903520	      0.00000000	      0.00000000	      6.67937063	      8.41219396	     -4.89669061	     20.78490853	      0.36276509	      0.97944315	      0.00000000	      0.00000000	    -27.45610353	    -12.59770975	      2.72977766	      3.22610564	      4.29552352	    -17.58823902	     48.39588818	     88.99358908	    -16.48802831	      1.41677294	    -12.05666372	     -1.84183517	    -19.58643062	     24.95153911	     89.28165112	    -22.39754723	      7.01146785
      0.19000000	     12.74960754	      6.42525776	     -5.30434637	     -0.01970090	      0.94945316	     -0.25509410	     -6.93329772	     -8.29868608	      4.31100084	     65.95196875	      1.15107900	     -1.69672763	      0.00000000	      0.00000000	      5.33668820	      8.49788316	     -5.14616690	     20.04832587	      0.34990930	      1.73020233	      0.00000000	      0.00000000	    -27.63159783	    -12.50176872	      2.73482040	      3.21726499	      4.21801978	    -17.65049234	     45.77639609	     88.97547961	    -16.70632481	      1.71454770	    -10.76075589	     -1.71521830	    -18.93724554	     25.98102072	     89.29529900	    -22.57076606	      6.60805566
      0.20000000	     12.61064077	      6.27340863	     -5.58599331	     -0.00510055	      0.95263881	     -0.25574473	     -4.50753782	     -7.96030407	      5.24510178	     67.08864272	      1.17091771	      1.18125301	      0.00000000	      0.00000000	      4.01918929	      8.51208145	     -5.50412266	     19.08880819	      0.33316255	      2.34178946	      0.00000000	      0.00000000	    -27.63155594	    -12.39156102	      2.88765293	      3.18349430	      4.09291801	    -17.64092262	     43.14857863	     88.96186023	    -16.87956869	      2.02933950	     -9.47324755	     -1.53721498	    -18.37563035	     27.14931531	     89.30420437	    -23.00351604	      5.96969184
